# xmcd
#
# Track frame offsets: 
#        183
#        19960
#        38963
#        57513
#        79150
#        96948
#        116985
#        141645
#        161728
#
# Disc length: 2491 seconds
#
# Revision: 4
# Processed by: cddbd v1.5.2PL0 Copyright (c) Steve Scherf et al.
# Submitted via: ExactAudioCopy v0.99pb5
#
DISCID=8609b909
DTITLE=Richie Havens - Simple Things
DYEAR=1990
DGENRE=Blues
TTITLE0=Drivin'
TTITLE1=Simple Things
TTITLE2=Songwriter
TTITLE3=Passin' By
TTITLE4=Wake Up And Dream
TTITLE5=I Don't Wanna Know
TTITLE6=Shouldn't We All Be Having A Good Time
TTITLE7=Arrow Through Me
TTITLE8=Runner In The Night
EXTD=
EXTT0=
EXTT1=
EXTT2=
EXTT3=
EXTT4=
EXTT5=
EXTT6=
EXTT7=
EXTT8=
PLAYORDER=
